#Comment line ignore any data following # character 
#Hierarchical Translation and Rotation (.htr) file 
[Header]	
#Header keywords are followed by a single value 
FileType HTR		#Single word string
DataType HTRS		#Translation followed by rotation and scale data
FileVersion 1		#integer
NumSegments 84		#integer
NumFrames 2		#integer
DataFrameRate 30		#integer, data frame rate in this file
EulerRotationOrder ZYX
CalibrationUnits mm
RotationUnits Degrees
GlobalAxisofGravity Y
BoneLengthAxis Y
ScaleFactor 1.00
[SegmentNames&Hierarchy]
#CHILD	PARENT
MASTER GLOBAL
root MASTER
chest root
L_mid_tent01 root
R_mid_tent01 root
spine01 root
Bip01_Neck chest
L_humerus chest
R_humerus chest
weapon_bone chest
Bip01_Head Bip01_Neck
eye_left_bone Bip01_Head
eye_right_bone Bip01_Head
L_forearm L_humerus
L_front_hand L_forearm
L_weapon_bone L_forearm
L_front_hand01_01 L_front_hand
L_front_hand02_01 L_front_hand
L_front_hand03_01 L_front_hand
L_front_hand01_02 L_front_hand01_01
L_front_hand02_02 L_front_hand02_01
L_front_hand03_02 L_front_hand03_01
R_forearm R_humerus
R_front_hand R_forearm
R_weapon_bone R_forearm
R_front_hand01_01 R_front_hand
R_front_hand02_01 R_front_hand
R_front_hand03_01 R_front_hand
R_front_hand01_02 R_front_hand01_01
R_front_hand02_02 R_front_hand02_01
R_front_hand03_02 R_front_hand03_01
null_rope01_connect L_mid_tent01
Rope1_Seg01 null_rope01_connect
Rope1_Seg02 Rope1_Seg01
Rope1_Seg03 Rope1_Seg02
Rope1_Seg04 Rope1_Seg03
Rope1_Seg05 Rope1_Seg04
Rope1_Seg06 Rope1_Seg05
Rope1_Seg07 Rope1_Seg06
Rope1_Seg09 Rope1_Seg07
L_mid_hand01 Rope1_Seg09
L_mid_hand02 Rope1_Seg09
L_mid_hand03 Rope1_Seg09
null_rope02_connect R_mid_tent01
Rope2_Seg01 null_rope02_connect
Rope2_Seg02 Rope2_Seg01
Rope2_Seg03 Rope2_Seg02
Rope2_Seg04 Rope2_Seg03
Rope2_Seg05 Rope2_Seg04
Rope2_Seg06 Rope2_Seg05
Rope2_Seg07 Rope2_Seg06
Rope2_Seg09 Rope2_Seg07
R_mid_hand01 Rope2_Seg09
R_mid_hand02 Rope2_Seg09
R_mid_hand03 Rope2_Seg09
spine02 spine01
spine03 spine02
pelvis spine03
null_rope03_connect pelvis
null_rope04_connect pelvis
Rope3_Seg01 null_rope03_connect
Rope3_Seg02 Rope3_Seg01
Rope3_Seg03 Rope3_Seg02
Rope3_Seg04 Rope3_Seg03
Rope3_Seg05 Rope3_Seg04
Rope3_Seg06 Rope3_Seg05
Rope3_Seg07 Rope3_Seg06
Rope3_Seg08 Rope3_Seg07
Rope3_Seg09 Rope3_Seg08
R_rear_hand01 Rope3_Seg09
R_rear_hand02 Rope3_Seg09
R_rear_hand03 Rope3_Seg09
Rope4_Seg01 null_rope04_connect
Rope4_Seg02 Rope4_Seg01
Rope4_Seg03 Rope4_Seg02
Rope4_Seg04 Rope4_Seg03
Rope4_Seg05 Rope4_Seg04
Rope4_Seg06 Rope4_Seg05
Rope4_Seg07 Rope4_Seg06
Rope4_Seg08 Rope4_Seg07
Rope4_Seg09 Rope4_Seg08
L_rear_hand01 Rope4_Seg09
L_rear_hand02 Rope4_Seg09
L_rear_hand03 Rope4_Seg09
[BasePosition]
#SegmentName Tx, Ty, Tz, Rx, Ry, Rz, BoneLength
MASTER 0.000000 0.000000 0.000000 -90.000000 0.000000 0.000000 10.000000 
root 0.000000 0.000000 0.000000 0.000000 0.000000 0.000000 10.000000 
chest 0.000000 0.000000 0.000000 0.000000 0.000000 0.000000 10.000000 
L_mid_tent01 0.000000 0.000000 0.000000 0.000000 0.000000 0.000000 10.000000 
R_mid_tent01 0.000000 0.000000 0.000000 0.000000 0.000000 0.000000 10.000000 
spine01 0.000000 0.000000 0.000000 0.000000 0.000000 0.000000 10.000000 
Bip01_Neck 0.000000 0.000000 0.000000 0.000000 0.000000 0.000000 10.000000 
L_humerus 0.000000 0.000000 0.000000 0.000000 0.000000 0.000000 10.000000 
R_humerus 0.000000 0.000000 0.000000 0.000000 0.000000 0.000000 10.000000 
weapon_bone 0.000000 0.000000 0.000000 0.000000 0.000000 0.000000 10.000000 
Bip01_Head 0.000000 0.000000 0.000000 0.000000 0.000000 0.000000 10.000000 
eye_left_bone 0.000000 0.000000 0.000000 0.000000 0.000000 0.000000 10.000000 
eye_right_bone 0.000000 0.000000 0.000000 0.000000 0.000000 0.000000 10.000000 
L_forearm 0.000000 0.000000 0.000000 0.000000 0.000000 0.000000 10.000000 
L_front_hand 0.000000 0.000000 0.000000 0.000000 0.000000 0.000000 10.000000 
L_weapon_bone 0.000000 0.000000 0.000000 0.000000 0.000000 0.000000 10.000000 
L_front_hand01_01 0.000000 0.000000 0.000000 0.000000 0.000000 0.000000 10.000000 
L_front_hand02_01 0.000000 0.000000 0.000000 0.000000 0.000000 0.000000 10.000000 
L_front_hand03_01 0.000000 0.000000 0.000000 0.000000 0.000000 0.000000 10.000000 
L_front_hand01_02 0.000000 0.000000 0.000000 0.000000 0.000000 0.000000 10.000000 
L_front_hand02_02 0.000000 0.000000 0.000000 0.000000 0.000000 0.000000 10.000000 
L_front_hand03_02 0.000000 0.000000 0.000000 0.000000 0.000000 0.000000 10.000000 
R_forearm 0.000000 0.000000 0.000000 0.000000 0.000000 0.000000 10.000000 
R_front_hand 0.000000 0.000000 0.000000 0.000000 0.000000 0.000000 10.000000 
R_weapon_bone 0.000000 0.000000 0.000000 0.000000 0.000000 0.000000 10.000000 
R_front_hand01_01 0.000000 0.000000 0.000000 0.000000 0.000000 0.000000 10.000000 
R_front_hand02_01 0.000000 0.000000 0.000000 0.000000 0.000000 0.000000 10.000000 
R_front_hand03_01 0.000000 0.000000 0.000000 0.000000 0.000000 0.000000 10.000000 
R_front_hand01_02 0.000000 0.000000 0.000000 0.000000 0.000000 0.000000 10.000000 
R_front_hand02_02 0.000000 0.000000 0.000000 0.000000 0.000000 0.000000 10.000000 
R_front_hand03_02 0.000000 0.000000 0.000000 0.000000 0.000000 0.000000 10.000000 
null_rope01_connect 0.000000 0.000000 0.000000 0.000000 0.000000 0.000000 10.000000 
Rope1_Seg01 0.000000 0.000000 0.000000 0.000000 0.000000 0.000000 10.000000 
Rope1_Seg02 0.000000 0.000000 0.000000 0.000000 0.000000 0.000000 10.000000 
Rope1_Seg03 0.000000 0.000000 0.000000 0.000000 0.000000 0.000000 10.000000 
Rope1_Seg04 0.000000 0.000000 0.000000 0.000000 0.000000 0.000000 10.000000 
Rope1_Seg05 0.000000 0.000000 0.000000 0.000000 0.000000 0.000000 10.000000 
Rope1_Seg06 0.000000 0.000000 0.000000 0.000000 0.000000 0.000000 10.000000 
Rope1_Seg07 0.000000 0.000000 0.000000 0.000000 0.000000 0.000000 10.000000 
Rope1_Seg09 0.000000 0.000000 0.000000 0.000000 0.000000 0.000000 10.000000 
L_mid_hand01 0.000000 0.000000 0.000000 0.000000 0.000000 0.000000 10.000000 
L_mid_hand02 0.000000 0.000000 0.000000 0.000000 0.000000 0.000000 10.000000 
L_mid_hand03 0.000000 0.000000 0.000000 0.000000 0.000000 0.000000 10.000000 
null_rope02_connect 0.000000 0.000000 0.000000 0.000000 0.000000 0.000000 10.000000 
Rope2_Seg01 0.000000 0.000000 0.000000 0.000000 0.000000 0.000000 10.000000 
Rope2_Seg02 0.000000 0.000000 0.000000 0.000000 0.000000 0.000000 10.000000 
Rope2_Seg03 0.000000 0.000000 0.000000 0.000000 0.000000 0.000000 10.000000 
Rope2_Seg04 0.000000 0.000000 0.000000 0.000000 0.000000 0.000000 10.000000 
Rope2_Seg05 0.000000 0.000000 0.000000 0.000000 0.000000 0.000000 10.000000 
Rope2_Seg06 0.000000 0.000000 0.000000 0.000000 0.000000 0.000000 10.000000 
Rope2_Seg07 0.000000 0.000000 0.000000 0.000000 0.000000 0.000000 10.000000 
Rope2_Seg09 0.000000 0.000000 0.000000 0.000000 0.000000 0.000000 10.000000 
R_mid_hand01 0.000000 0.000000 0.000000 0.000000 0.000000 0.000000 10.000000 
R_mid_hand02 0.000000 0.000000 0.000000 0.000000 0.000000 0.000000 10.000000 
R_mid_hand03 0.000000 0.000000 0.000000 0.000000 0.000000 0.000000 10.000000 
spine02 0.000000 0.000000 0.000000 0.000000 0.000000 0.000000 10.000000 
spine03 0.000000 0.000000 0.000000 0.000000 0.000000 0.000000 10.000000 
pelvis 0.000000 0.000000 0.000000 0.000000 0.000000 0.000000 10.000000 
null_rope03_connect 0.000000 0.000000 0.000000 0.000000 0.000000 0.000000 10.000000 
null_rope04_connect 0.000000 0.000000 0.000000 0.000000 0.000000 0.000000 10.000000 
Rope3_Seg01 0.000000 0.000000 0.000000 0.000000 0.000000 0.000000 10.000000 
Rope3_Seg02 0.000000 0.000000 0.000000 0.000000 0.000000 0.000000 10.000000 
Rope3_Seg03 0.000000 0.000000 0.000000 0.000000 0.000000 0.000000 10.000000 
Rope3_Seg04 0.000000 0.000000 0.000000 0.000000 0.000000 0.000000 10.000000 
Rope3_Seg05 0.000000 0.000000 0.000000 0.000000 0.000000 0.000000 10.000000 
Rope3_Seg06 0.000000 0.000000 0.000000 0.000000 0.000000 0.000000 10.000000 
Rope3_Seg07 0.000000 0.000000 0.000000 0.000000 0.000000 0.000000 10.000000 
Rope3_Seg08 0.000000 0.000000 0.000000 0.000000 0.000000 0.000000 10.000000 
Rope3_Seg09 0.000000 0.000000 0.000000 0.000000 0.000000 0.000000 10.000000 
R_rear_hand01 0.000000 0.000000 0.000000 0.000000 0.000000 0.000000 10.000000 
R_rear_hand02 0.000000 0.000000 0.000000 0.000000 0.000000 0.000000 10.000000 
R_rear_hand03 0.000000 0.000000 0.000000 0.000000 0.000000 0.000000 10.000000 
Rope4_Seg01 0.000000 0.000000 0.000000 0.000000 0.000000 0.000000 10.000000 
Rope4_Seg02 0.000000 0.000000 0.000000 0.000000 0.000000 0.000000 10.000000 
Rope4_Seg03 0.000000 0.000000 0.000000 0.000000 0.000000 0.000000 10.000000 
Rope4_Seg04 0.000000 0.000000 0.000000 0.000000 0.000000 0.000000 10.000000 
Rope4_Seg05 0.000000 0.000000 0.000000 0.000000 0.000000 0.000000 10.000000 
Rope4_Seg06 0.000000 0.000000 0.000000 0.000000 0.000000 0.000000 10.000000 
Rope4_Seg07 0.000000 0.000000 0.000000 0.000000 0.000000 0.000000 10.000000 
Rope4_Seg08 0.000000 0.000000 0.000000 0.000000 0.000000 0.000000 10.000000 
Rope4_Seg09 0.000000 0.000000 0.000000 0.000000 0.000000 0.000000 10.000000 
L_rear_hand01 0.000000 0.000000 0.000000 0.000000 0.000000 0.000000 10.000000 
L_rear_hand02 0.000000 0.000000 0.000000 0.000000 0.000000 0.000000 10.000000 
L_rear_hand03 0.000000 0.000000 0.000000 0.000000 0.000000 0.000000 10.000000 
#Beginning of Data. Separated by tabs
#Fr	Tx	Ty	Tz	Rx	Ry	Rz	SF
[MASTER]
1 0.000000 0.000000 0.000000 0.000000 -0.002347 -90.000000 0.000000
2 -22.166197 -221.842834 301.024963 0.000000 -0.002347 -90.000000 374.595276
[root]
1 -62.822105 16.502302 1500.000000 -91.774895 -35.574917 -179.871292 1501.405640
2 -68.112526 14.407401 1499.848511 -88.934357 -31.747074 178.042572 1501.463501
[chest]
1 -84.512650 -34.090519 0.000000 -2.019906 0.602782 171.823990 91.129311
2 -84.512650 -34.090519 0.000000 -2.213445 -1.320241 174.555420 91.129311
[L_mid_tent01]
1 27.299519 22.177517 -249.918259 -1.379268 36.511192 66.497536 252.381149
2 27.299534 22.177519 -249.918259 -0.293353 25.759521 68.389473 252.381149
[R_mid_tent01]
1 23.228794 24.509907 226.238495 173.895706 -30.891880 58.389252 228.744751
2 23.228794 24.509907 226.238495 170.230606 -23.707077 67.421585 228.744751
[spine01]
1 -0.361383 -0.195265 0.000000 0.001845 0.001451 13.654368 0.410763
2 -0.361383 -0.195265 0.000000 0.001839 0.001460 13.095053 0.410763
[Bip01_Neck]
1 165.484543 71.581718 0.000119 176.643677 -1.657967 43.431911 180.302734
2 165.484543 71.581718 0.000119 176.643677 -1.657967 43.431911 180.302734
[L_humerus]
1 -13.983130 -135.272980 -120.471481 156.317398 70.210068 -112.010254 181.680161
2 -13.983130 -135.272980 -120.471481 155.248047 71.044952 -113.139671 181.680161
[R_humerus]
1 -13.983309 -135.273102 125.287651 -172.382263 -66.903831 -92.553993 184.909012
2 -13.983309 -135.273102 125.287651 -172.257019 -67.278351 -92.692017 184.909012
[weapon_bone]
1 235.964890 -300.705902 0.000000 0.000000 -89.951546 -128.212341 382.234833
2 235.964890 -300.705902 0.000000 0.000000 -89.951546 -128.212341 382.234833
[Bip01_Head]
1 213.444290 185.715439 11.776974 4.962490 2.797846 -43.898743 283.173798
2 213.440521 185.725967 11.640248 5.894607 3.430103 -43.889526 283.172180
[eye_left_bone]
1 -24.626970 125.451866 -64.772606 0.000000 -90.000000 -99.840431 143.318359
2 -24.626970 125.451866 -64.772606 0.000000 -90.000000 -99.840431 143.318359
[eye_right_bone]
1 -24.626970 125.451866 64.327362 0.000000 -89.965736 80.156380 143.117676
2 -24.626970 125.451866 64.327362 0.000000 -89.965736 80.156380 143.117676
[L_forearm]
1 322.776093 0.000000 -0.000119 0.000119 -0.002344 -95.807457 322.776093
2 322.776093 0.000000 -0.000119 0.000119 -0.002344 -95.807457 322.776093
[L_front_hand]
1 241.149185 -0.042021 -3.300071 -178.667953 -1.835447 -27.422350 241.171753
2 241.149185 -0.042021 -3.300071 -178.667953 -1.835447 -27.422350 241.171753
[L_weapon_bone]
1 156.183838 0.000000 0.000000 0.000014 0.000007 0.000001 156.183838
2 156.183838 0.000000 0.000000 0.000014 0.000007 0.000001 156.183838
[L_front_hand01_01]
1 86.095154 20.947098 -0.655860 -0.366594 -0.477154 75.385574 88.609184
2 86.095154 20.947098 -0.655860 -0.366594 -0.477154 75.385574 88.609184
[L_front_hand02_01]
1 86.935165 -11.437475 24.513514 154.399796 -59.883835 -61.369587 91.046425
2 86.935165 -11.437475 24.513514 154.399796 -59.883835 -61.369587 91.046425
[L_front_hand03_01]
1 86.637497 -14.123976 -20.424902 -153.913849 58.118122 -62.702866 90.126129
2 86.637497 -14.123976 -20.424902 -153.913849 58.118122 -62.702866 90.126129
[L_front_hand01_02]
1 71.020905 -0.000179 0.000030 0.000320 -0.002325 -105.680054 71.020905
2 71.020905 -0.000179 0.000030 0.000319 -0.002325 -105.642807 71.020905
[L_front_hand02_02]
1 71.020927 -0.000119 0.000060 0.000320 -0.002325 -105.680054 71.020927
2 71.020927 -0.000119 0.000060 0.000319 -0.002325 -105.642807 71.020927
[L_front_hand03_02]
1 71.020905 -0.000060 0.000060 0.000320 -0.002325 -105.680054 71.020905
2 71.020905 -0.000060 0.000060 0.000319 -0.002325 -105.642807 71.020905
[R_forearm]
1 322.776428 -0.000060 0.000030 0.209504 0.012586 -94.339050 322.776428
2 322.776428 -0.000060 0.000030 0.209504 0.012586 -94.339050 322.776428
[R_front_hand]
1 238.847015 -0.006795 2.210259 -2.635298 -10.645461 -26.312506 238.857239
2 238.847015 -0.006795 2.210259 -2.635298 -10.645461 -26.312506 238.857239
[R_weapon_bone]
1 155.664093 0.002503 -0.000030 0.003487 0.001180 -90.988930 155.664078
2 155.664093 0.002503 -0.000030 0.003487 0.001180 -90.988930 155.664078
[R_front_hand01_01]
1 87.624611 14.231146 22.918642 -154.633499 -59.950619 61.746044 91.683487
2 87.624611 14.231146 22.918642 -154.633499 -59.950619 61.746044 91.683487
[R_front_hand02_01]
1 89.356956 14.367283 -19.491137 154.602661 58.302849 63.744389 92.579636
2 89.356956 14.367283 -19.491137 154.602661 58.302849 63.744389 92.579636
[R_front_hand03_01]
1 87.286232 -22.307278 -0.143439 0.162155 -0.423168 -75.767921 90.091743
2 87.286232 -22.307278 -0.143439 0.162155 -0.423168 -75.767921 90.091743
[R_front_hand01_02]
1 71.020905 0.000060 0.000119 0.002323 -0.000334 106.381714 71.020905
2 71.020905 0.000060 0.000119 0.002323 -0.000334 106.381714 71.020905
[R_front_hand02_02]
1 71.020844 -0.000030 -0.000119 0.002323 -0.000334 106.381714 71.020836
2 71.020844 -0.000030 -0.000119 0.002323 -0.000334 106.381714 71.020836
[R_front_hand03_02]
1 71.020905 0.000000 0.000030 0.002323 -0.000334 106.381714 71.020905
2 71.020905 0.000000 0.000030 0.002323 -0.000334 106.381714 71.020905
[null_rope01_connect]
1 328.732483 0.000000 -0.000238 124.151299 51.911556 3.012787 328.732483
2 328.732483 0.000000 -0.000238 124.129974 63.634087 -2.921135 328.732483
[Rope1_Seg01]
1 0.000019 0.000000 0.000000 146.851303 34.069572 25.543818 0.000019
2 0.000019 0.000022 0.000000 162.625107 42.535667 28.078384 0.000029
[Rope1_Seg02]
1 139.999863 -0.000179 0.000000 11.315333 -11.471473 -0.319414 139.999863
2 139.999863 -0.000179 0.000000 7.946640 -13.864610 4.259427 139.999863
[Rope1_Seg03]
1 139.999924 0.000060 -0.000060 11.525075 -30.511309 5.432035 139.999924
2 139.999924 0.000060 -0.000060 2.956641 -27.691988 14.121267 139.999924
[Rope1_Seg04]
1 139.999924 -0.000060 -0.000119 -5.850988 -42.941540 18.446880 139.999924
2 139.999924 -0.000060 -0.000119 -4.954070 -28.720877 19.109064 139.999924
[Rope1_Seg05]
1 139.999832 0.000119 -0.000060 -5.861163 -19.100634 12.517535 139.999832
2 139.999832 0.000119 -0.000060 -5.269403 -18.388290 13.040022 139.999832
[Rope1_Seg06]
1 139.999954 0.000119 -0.000060 -3.477872 -12.103713 11.058815 139.999954
2 139.999954 0.000119 -0.000060 -5.883650 -13.073326 8.638142 139.999954
[Rope1_Seg07]
1 139.999985 0.000060 0.000000 -4.274304 -7.270343 5.060258 139.999985
2 139.999985 0.000060 0.000000 -4.975672 -6.932935 3.502487 139.999985
[Rope1_Seg09]
1 121.602913 0.000119 -0.000089 -89.793175 -1.359789 0.847147 121.602913
2 121.602913 0.000119 -0.000089 -89.793175 -1.359789 0.847147 121.602913
[L_mid_hand01]
1 103.859421 1.038730 8.195221 130.544373 -67.584534 -38.866943 104.187431
2 103.859421 1.038730 8.195221 129.242477 -66.931091 -37.458961 104.187431
[L_mid_hand02]
1 105.572853 -4.139662 -10.864139 -168.923172 43.409309 -73.498886 106.211075
2 105.572853 -4.139662 -10.864139 -168.136536 43.236561 -72.353096 106.211075
[L_mid_hand03]
1 104.641464 17.579376 -3.913581 -6.012627 17.808174 74.893669 106.179977
2 104.641464 17.579376 -3.913581 -6.285014 17.719219 74.000862 106.179977
[null_rope02_connect]
1 328.732849 0.000179 -0.000119 98.926811 -59.712643 -167.455170 328.732849
2 328.732849 0.000179 -0.000119 105.082733 -65.608971 -161.750397 328.732849
[Rope2_Seg01]
1 -0.000076 -0.000191 0.000000 -144.962814 47.534481 142.947708 0.000205
2 -0.000076 -0.000187 0.000000 -156.477676 48.663738 137.057236 0.000202
[Rope2_Seg02]
1 139.999741 -0.000060 -0.000119 -0.135861 -15.387489 6.376342 139.999756
2 139.999741 -0.000060 -0.000119 4.118582 -14.288271 2.283523 139.999756
[Rope2_Seg03]
1 140.000107 0.000030 0.000000 -5.984541 -32.979492 18.436457 140.000107
2 140.000107 0.000030 0.000000 1.521818 -25.050583 6.238678 140.000107
[Rope2_Seg04]
1 139.999802 0.000000 -0.000060 -4.442392 -30.705669 16.846836 139.999802
2 139.999802 0.000000 -0.000060 -3.263978 -34.088417 11.465048 139.999802
[Rope2_Seg05]
1 139.999985 -0.000060 0.000119 -8.737103 -23.181713 0.055401 139.999985
2 139.999985 -0.000060 0.000119 -2.175148 -18.546326 6.042913 139.999985
[Rope2_Seg06]
1 139.999893 -0.000030 -0.000119 -13.729245 -14.115205 -3.803351 139.999893
2 139.999893 -0.000030 -0.000119 -0.962941 -6.678661 1.925704 139.999893
[Rope2_Seg07]
1 139.999893 0.000060 -0.000060 -8.654497 -6.010341 -2.384320 139.999893
2 139.999893 0.000060 -0.000060 -0.636854 -3.559587 0.961615 139.999893
[Rope2_Seg09]
1 121.338966 0.000089 -0.000060 33.793236 -1.359788 -0.847141 121.338966
2 121.338966 0.000089 -0.000060 33.793236 -1.359788 -0.847141 121.338966
[R_mid_hand01]
1 104.680779 11.144459 -10.335981 -16.212063 45.237247 70.462852 105.778534
2 104.680779 11.144459 -10.335981 -16.562792 45.133286 69.965408 105.778534
[R_mid_hand02]
1 104.070427 2.443552 8.231699 49.067368 -67.749771 39.286453 104.424065
2 104.070427 2.443552 8.231699 49.649654 -67.470848 38.658398 104.424065
[R_mid_hand03]
1 106.028137 -11.221827 -5.996406 -177.101105 15.551026 -76.585571 106.788818
2 106.028137 -11.221827 -5.996406 -176.996689 15.531745 -76.202309 106.788818
[spine02]
1 129.756927 0.001550 0.000119 -1.023899 -3.926965 6.770993 129.756927
2 129.756927 0.001550 0.000119 -1.023899 -3.926965 6.770993 129.756927
[spine03]
1 78.613831 0.087324 -4.898867 1.040681 4.146420 4.212376 78.766365
2 78.613838 0.087329 -4.898868 1.040681 4.146420 4.212376 78.766380
[pelvis]
1 169.435242 0.051022 0.000000 0.019518 -0.190233 -10.721436 169.435257
2 169.435242 0.051022 0.000000 0.114001 -0.191301 -10.721600 169.435257
[null_rope03_connect]
1 -1.257226 -2.466202 137.391083 147.719376 87.993576 79.463646 137.418976
2 -1.257226 -2.466202 137.391083 64.370445 88.315071 -7.145377 137.418976
[null_rope04_connect]
1 -1.259640 -2.480268 -137.844437 147.719376 87.993576 79.463646 137.872513
2 -1.259640 -2.480268 -137.844437 64.370445 88.315071 -7.145377 137.872513
[Rope3_Seg01]
1 0.000019 0.000000 0.000000 -148.244873 -41.860672 123.318695 0.000019
2 0.000019 0.000022 0.000000 -143.512604 -38.263111 118.460182 0.000029
[Rope3_Seg02]
1 139.999924 -0.000119 0.000060 -23.583586 5.561832 -34.389690 139.999924
2 139.999924 -0.000119 0.000060 -21.631536 4.670709 -36.175888 139.999924
[Rope3_Seg03]
1 139.999924 -0.000119 0.000119 -33.899124 15.759840 -21.692255 139.999924
2 139.999924 -0.000119 0.000119 -33.480221 14.722799 -22.786224 139.999924
[Rope3_Seg04]
1 139.999924 0.000119 0.000000 -58.776047 39.656036 -37.482422 139.999924
2 139.999924 0.000119 0.000000 -58.058365 33.441017 -36.414528 139.999924
[Rope3_Seg05]
1 139.999924 -0.000238 0.000060 -6.239868 27.507275 3.675533 139.999924
2 139.999924 -0.000238 0.000060 -10.244905 28.923960 1.624352 139.999924
[Rope3_Seg06]
1 139.999893 -0.000119 -0.000060 -0.048916 6.331928 1.772290 139.999893
2 139.999893 -0.000119 -0.000060 -0.599939 6.980597 1.917413 139.999893
[Rope3_Seg07]
1 139.999771 0.000060 -0.000119 0.391965 3.441206 0.968401 139.999771
2 139.999771 0.000060 -0.000119 0.131175 3.764938 1.079783 139.999771
[Rope3_Seg08]
1 139.999985 -0.000060 0.000000 0.509963 1.903538 0.524564 139.999985
2 139.999985 -0.000060 0.000000 0.378417 2.072101 0.592197 139.999985
[Rope3_Seg09]
1 90.185997 -0.000179 -0.000060 89.793228 -1.359877 -0.847183 90.185997
2 90.185997 -0.000179 -0.000060 89.793228 -1.359877 -0.847183 90.185997
[R_rear_hand01]
1 103.366196 -6.073594 -10.757982 -177.714203 24.565960 -73.910950 104.101845
2 103.366196 -6.073594 -10.757982 -177.501556 24.545221 -73.407959 104.101845
[R_rear_hand02]
1 100.509819 12.039542 -7.992327 -12.874829 36.868488 72.167213 101.543350
2 100.509819 12.039542 -7.992327 -13.210595 36.766563 71.607780 101.543350
[R_rear_hand03]
1 101.539970 5.215704 5.435467 71.484581 -71.816628 21.513813 101.819031
2 101.539970 5.215704 5.435467 71.918968 -71.383453 21.055584 101.819031
[Rope4_Seg01]
1 0.000000 0.000038 -0.000153 71.536194 -41.060299 48.344296 0.000157
2 0.000000 0.000060 -0.000153 65.145233 -33.759068 51.482811 0.000164
[Rope4_Seg02]
1 139.999985 0.000060 0.000119 31.914650 -39.747303 16.882097 139.999985
2 139.999985 0.000060 0.000119 28.436703 -38.999050 9.587556 139.999985
[Rope4_Seg03]
1 139.999924 0.000000 -0.000238 26.944572 -10.776477 20.644634 139.999924
2 139.999924 0.000000 -0.000238 34.888245 -16.048552 18.975883 139.999924
[Rope4_Seg04]
1 139.999985 0.000000 0.000119 28.257603 -10.368758 38.884590 139.999985
2 139.999985 0.000000 0.000119 35.654137 -12.794333 38.277527 139.999985
[Rope4_Seg05]
1 139.999802 -0.000060 -0.000119 9.571700 6.561579 26.921730 139.999802
2 139.999802 -0.000060 -0.000119 12.253571 9.073895 29.049480 139.999802
[Rope4_Seg06]
1 139.999924 0.000000 0.000060 1.138582 3.356270 7.650733 139.999924
2 139.999924 0.000000 0.000060 1.319587 4.341011 7.669721 139.999924
[Rope4_Seg07]
1 139.999802 0.000000 0.000000 0.388760 1.922602 4.188829 139.999802
2 139.999802 0.000000 0.000000 0.444473 2.420825 4.088098 139.999802
[Rope4_Seg08]
1 139.999924 0.000000 0.000119 -1.406399 1.073839 2.308440 139.999924
2 139.999924 0.000000 0.000119 -1.382380 1.334492 2.221468 139.999924
[Rope4_Seg09]
1 90.185791 0.000060 0.000060 -135.617828 2.228885 0.850567 90.185791
2 90.185791 0.000060 0.000060 -135.617828 2.228885 0.850567 90.185791
[L_rear_hand01]
1 101.696655 -8.392275 -7.654577 -12.874829 -36.868488 107.832764 102.329041
2 101.696655 -8.392275 -7.654577 -14.225129 -36.428967 110.098549 102.329041
[L_rear_hand02]
1 102.726799 -1.568258 5.773216 71.484581 71.816628 158.486160 102.900848
2 102.726799 -1.568258 5.773216 73.119141 70.038223 160.218079 102.900848
[L_rear_hand03]
1 104.552910 9.721220 -10.420293 -177.714203 -24.565960 -106.089035 105.519653
2 104.552910 9.721220 -10.420293 -176.859985 -24.478331 -108.136047 105.519653
